<?xml version="1.0" encoding="UTF-8"?>
<svg width="256" height="256" version="1.1" xmlns="http://www.w3.org/2000/svg" viewBox="0 0 256 256">
    <defs>
        <rect id="base" x="0" y="0" width="256" height="256" rx="32" ry="32" />
        <clipPath id="base-clip"><use href="#base" /></clipPath>
        <path id="leaf"
            style="fill:#486"
            d="M 0 256 Q 0 208 32 176 Q 64 208 64 256 Z"
        />
    </defs>
    <g clip-path="url(#base-clip)">
        <use href="#base" style="fill:#bcf;stroke:none" />
        <ellipse
            style="fill:white"
            cx="96" cy="56" rx="56" ry="24"
        />
        <path
            style="fill:#6b8;stroke:#6b8;stroke-linejoin:round;stroke-width:64"
            d="M 32 32 L 224 224 L 32 224 Z"
        />
        <use href="#leaf" transform="translate(-32 0)"/>
        <use href="#leaf" transform="translate(19.2 0)"/>
        <use href="#leaf" transform="translate(70.4 0)"/>
        <use href="#leaf" transform="translate(121.6 0)"/>
        <use href="#leaf" transform="translate(172.8 0)"/>
        <use href="#leaf" transform="translate(224 0)"/>
        <g transform="translate(0 -8)">
            <ellipse
                style="fill:white"
                cx="160" cy="128" rx="64" ry="32"
            />
            <ellipse
                style="fill:white"
                cx="176" cy="112" rx="32" ry="32"
            />
        </g>
        <g style="fill:none;stroke:black;stroke-opacity:0.03">
            <use href="#base" style="stroke-width:32" />
            <use href="#base" style="stroke-width:28" />
            <use href="#base" style="stroke-width:24" />
            <use href="#base" style="stroke-width:20" />
            <use href="#base" style="stroke-width:16" />
            <use href="#base" style="stroke-width:12" />
            <use href="#base" style="stroke-width:8" />
            <use href="#base" style="stroke-width:4" />
        </g>
        <!-- <path
            style="
                fill: none;
                stroke: white;
                stroke-linecap: round;
                stroke-linejoin: round;
                stroke-opacity: 0.3;
                stroke-width: 4;
            "
            d="M 20 224 L 20 32 Q 20 20 32 20 L 224 20"
        /> -->
    </g>
</svg>
